<svg width="32" height="33" fill="none" xmlns="http://www.w3.org/2000/svg"><path d="M19.582 6.745a7.181 7.181 0 015.673 5.673M19.582 1A12.926 12.926 0 0131 12.404m-1.436 11.46v4.31a2.872 2.872 0 01-3.131 2.872 28.423 28.423 0 01-12.395-4.41 28.006 28.006 0 01-8.617-8.617A28.423 28.423 0 011.01 5.567a2.873 2.873 0 012.859-3.13h4.308a2.872 2.872 0 012.873 2.47 18.44 18.44 0 001.005 4.035 2.872 2.872 0 01-.646 3.03l-1.824 1.825a22.98 22.98 0 008.617 8.617l1.824-1.824a2.871 2.871 0 013.03-.646c1.304.486 2.658.823 4.037 1.005a2.873 2.873 0 012.47 2.916z" stroke="#0A99E2" stroke-width="2" stroke-linecap="round" stroke-linejoin="round"/></svg>