<svg width="24" height="17" fill="none" xmlns="http://www.w3.org/2000/svg"><path d="M22.54 3.42a2.78 2.78 0 00-1.94-2C18.88 1 12 1 12 1s-6.88 0-8.6.46a2.78 2.78 0 00-1.94 2A29 29 0 001 8.75a29 29 0 00.46 5.33A2.78 2.78 0 003.4 16c1.72.46 8.6.46 8.6.46s6.88 0 8.6-.46a2.78 2.78 0 001.94-2c.313-1.732.467-3.49.46-5.25a29.005 29.005 0 00-.46-5.33v0z" stroke="#5FA0E7" stroke-linecap="round" stroke-linejoin="round"/><path d="M9.75 12.02l5.75-3.27-5.75-3.27v6.54z" stroke="#5FA0E7" stroke-linecap="round" stroke-linejoin="round"/></svg>